<svg xmlns="http://www.w3.org/2000/svg" width="1351" height="1351.031" viewBox="0 0 1351 1351.031">
<defs>
    <linearGradient id="half_grad" x1="0%" y1="0%" x2="100%" y2="0%" gradientTransform="rotate(90)" >
         <stop offset="50%" stopColor="black"/>
         <stop offset="50%" stopColor="green" stopOpacity="1"/>
     </linearGradient>
  </defs>
  <path className="sol" d="M1018.84,74.092c153.34-2.552,266.06,35.221,361.57,90.4,9.03,5.219,17.6,7.689,26.11,13.057,111.16,70.091,193.91,166.129,254.11,287.257,5.81,11.7,7.99,23.2,13.05,35.153,16.24,38.335,27.85,82.434,39.17,126.554,5.03,19.588,2.42,39.9,7.03,60.263,5.01,22.1,7.52,76.7,2.01,100.44V808.3c-4.77,19.819-3.6,42.765-9.04,63.277-4.68,17.672-9.62,38.462-15.06,55.241-1.67,5.134-.28,8.368-2.01,13.057-11.21,30.278-21.47,59.74-33.14,89.392-4.74,12.02-13.84,24.3-20.09,35.15-9.06,15.72-14.34,31.42-24.11,46.21-12.39,18.76-27,36.53-40.17,54.23-78.93,106.1-190.07,180.39-327.42,228-36.29,12.58-76.05,16.76-115.51,26.11-19.13,4.54-41.88,1.84-60.26,6.03h-21.09c-23.14.01-45.59,0.42-65.284-4.02H977.658c-16.593-3.92-36.876-6.38-52.227-10.04-7.368-1.76-12.358.19-19.083-2.01-19.025-6.23-39.265-9.81-59.258-16.07-22.676-7.1-46.166-18.09-67.292-27.12-132.039-56.42-231.082-146.9-304.323-262.15-19.432-30.57-33.906-65.3-50.219-98.43-1.743-3.54-.539-5.889-2.008-10.04-5.284-14.928-12.95-30.759-18.079-46.2q-3.012-13.056-6.026-26.114c-26.985-82.571-36.512-229-7.031-317.388q1-7.533,2.009-15.066c5-16.448,10.382-35.955,16.07-51.224,1.518-4.075.26-7.09,2.009-11.049,19.176-43.416,35.229-87.89,59.257-126.553,77.441-124.611,182.18-214.145,322.4-276.208C836.817,106.3,885.2,96.43,934.47,84.136c19.232-4.8,40.48-3.788,59.258-8.035C1002.32,74.156,1012.75,78.085,1018.84,74.092Zm24.1,59.259c-3.74,5.585-9.71,9.978-15.06,14.061-4.83,3.679-9.33,10.158-13.06,15.066q-5.52,4.519-11.05,9.04c-1.38,1.821-1.44,4.449-3.01,6.026-5.171,5.174-12.156,8.65-17.076,14.062-10.467,11.513-22.614,21.862-32.14,34.149L940.5,234.8a153.07,153.07,0,0,1-28.122,28.123l-7.031,9.039c-10.284,10.32-20.524,21.189-31.135,31.136V305.1h2.009c4.784,2.96,18.257,1,25.109,1h231c26.04,0,60.63,3.547,84.37-1v-2.009h-1.01c-2.37-6.938-10.27-11.281-15.06-16.07-11.08-11.082-21.17-22.933-33.15-33.145-14.23-12.142-25.94-27.932-39.17-41.18-26.76-26.793-54.88-52.269-81.35-79.347h-4.02Zm-164.715,204.9a11.61,11.61,0,0,1-3.013,2.009v2.009c5.673,3.909,8.8,9.692,13.057,15.066,3.383,4.266,9.658,7.691,14.061,11.048,2.036,1.552,2.421,3.921,4.018,6.026l14.061,13.057c2.989,3.51,5.756,7.8,9.039,11.049,37.974,37.613,77.8,73.624,114.5,112.492,1.76-.634.97-0.194,2-1,10.29-3.335,36.02-32.982,43.19-42.184,2.13-2.735,6.58-3.579,9.04-6.027,4.69-4.667,8.39-10.37,13.06-15.066,2.29-2.306,5.83-3.665,8.03-6.026,18.75-20.066,37.47-40.239,57.25-59.259,10.14-9.754,20.58-18.736,29.13-30.132,3.56-4.749,9.06-4.286,10.04-12.053h-2.01c-4.97-3.067-19.04-1-26.11-1h-65.28C1040.55,338.248,957.082,338.114,878.225,338.247ZM807.92,368.379c-11.425,15.155-30.618,31.787-45.2,44.193-6.97,5.931-11.806,15.532-19.083,21.092-21.389,16.344-40.438,39.92-59.257,59.26l-9.039,7.03c-6.966,9.135-15.108,17-23.1,25.11-4.88,4.949-11.363,6.778-12.052,16.07,9.8,6.5,19.117,16.6,26.113,26.115l6.026,4.017c6.126,5.873,11.241,15.2,18.079,20.088l4.017,1c1.672,1.335,1.663,4.283,3.014,6.027,1.028,1.328,2.633.938,4.017,2.009,3.751,2.9,5.708,7.714,9.039,11.048,13.149,13.157,26.679,25.292,39.171,39.171,2.537,2.819,7.82,4.057,10.043,7.031,9.18,12.277,20.433,20.543,31.136,31.136,7.176,7.1,10.149,16.554,21.091,20.088,2.059-29.17,1-62.576,1-93.409V394.493c0-7.937,1.536-20.38-2.009-25.11v-1H807.92Zm47.205,2.009c-4.9-.214-5-1.261-9.039-2.009-2.67,8.132-1,22.192-1,32.14V692.8c-1.757,2.835-.179,9.841,0,15.066a14.262,14.262,0,0,0,4.018,1c13.134-15.629,30.177-29.323,45.2-43.189,5.817-5.37,10.467-12.448,16.07-18.079,21.04-21.143,42.247-42.118,63.275-63.277,10.192-10.255,20-20.8,30.13-31.136,5.68-5.795,12.59-6.694,13.06-18.079-9.76-6.583-27.784-26.47-35.155-36.158-5.029-6.61-13.348-11.063-19.083-17.075-16.737-17.546-33.974-34.206-51.222-51.224-16.919-16.692-36.84-43.583-56.245-56.246v-4.017ZM1043.95,565.24c-3.34,4.518-8.05,7.213-12.06,11.048a166.91,166.91,0,0,0-17.07,19.084c-4.22,5.534-11.3,9.032-16.071,14.061-13.682,14.419-28.173,28.14-41.179,43.189-4.222,4.886-10.675,8.3-15.065,13.057-6.743,7.3-12.9,15.271-20.087,22.1-8.645,8.215-17.383,15.962-26.114,24.105-2.021,1.885-2.819,5.316-5.022,7.031-6.071,4.727-14.3,10.288-17.074,18.079l2.009,1c5.225,3.923,14.976,1.013,23.1,1H1192.59c8.97,0.025,16.19,1.7,23.1-1,0.34-.669.67-1.339,1.01-2.008h-1.01c-2.53-7.246-11.42-13.6-17.07-18.079-11.63-9.207-20.7-22.384-32.14-32.141-8.36-7.127-19.17-19.388-26.12-28.123l-9.03-7.031c-9.27-12.1-21.81-21.112-31.14-33.145q-5.025-4.017-10.04-8.035c-8.7-8.685-16.3-18.555-25.11-27.119-5.84-5.671-13.1-10.626-18.08-17.074h-3.01Zm-167.733,206.9v4.017c5.013,3.844,8.346,10.055,13.056,14.062,13.685,11.64,26.535,24.449,39.171,37.162,1.96,1.973,3,5.143,5.022,7.031,2.833,2.65,6.439,4.184,9.039,7.031,1.068,1.17.734,3.078,2.009,4.017,1.544,1.139,3.828.605,5.021,2.009C961.494,861.549,974,876.42,988.706,887.65c7.322,5.591,11.894,15.442,19.084,21.092,8.4,6.606,14.25,15.106,22.09,22.1,4.66,4.146,9.75,7.609,14.07,12.052,1.76-.633.97-0.193,2-1,7.78-2.237,10.86-9.255,16.07-14.061,11.57-10.661,22.04-22.062,33.15-33.145,39.89-39.806,79.93-79.408,119.52-119.523v-2.009h-1.01v-1c-18.44-2.1-41.15-1-61.26-1H937.483C917.373,771.14,894.663,770.041,876.217,772.145Zm373.623,32.14c-13.29,14.266-26.84,28.985-42.18,41.18q-2.52,3.516-5.02,7.031c-8.91,9.081-18.12,18.151-28.13,26.114-3.27,2.607-6.28,7.816-9.04,11.049-4.3,5.059-10.37,8.375-15.06,13.057-8.69,8.672-16.15,18.738-25.11,27.118-11.42,10.684-21.76,22.5-33.14,33.145-4.47,4.178-11.6,8.1-13.06,15.066,4.04,3.8,6.23,9.01,10.04,13.057,5.23,5.556,12.49,9.828,18.08,15.068q2.505,3.51,5.02,7.03c14.94,13.96,28.57,28.97,43.19,43.19,18.68,18.16,37.12,36.55,56.24,54.24,6.39,5.9,11.12,14.88,18.08,20.08a166.144,166.144,0,0,1,20.09,18.08c1.76-.63.98-0.19,2.01-1,3.58-5.56,2.01-18.51,2.01-27.12v-65.29c0-83.082-.39-168.66-1.01-250.09C1251.85,804.955,1250.85,804.62,1249.84,804.285ZM1287,808.3c-2.15,11.353-1,27.143-1,40.176v75.329c0,73.047-1.76,151.242,0,220.962a14.2,14.2,0,0,0,4.02,1.01q20.085-19.59,40.17-39.17c26.97-28.23,54.76-55.76,82.36-83.37,8.53-8.53,16.57-17.58,25.11-26.111,6.2-6.2,17.75-11.471,19.08-22.1-7.82-5.2-15.35-14.654-21.09-22.1q-4.515-3.514-9.04-7.03c-0.34-1.339-.67-2.679-1.01-4.018-1.54-1.382-4.58-.582-6.02-2.009-4.5-4.451-9.66-12.146-14.06-17.074-4.56-5.1-10.6-9.873-16.07-14.062-6.31-4.827-12.08-12.79-17.08-19.083q-4.515-3.516-9.04-7.031c-8.71-11.392-20.21-19.958-30.13-30.132C1323.18,842.218,1299.5,812.744,1287,808.3Zm-71.31,360.577v-4.02c-5.54-3.43-8.55-8.67-13.05-13.05-9.56-9.3-18.73-18.69-28.13-28.13-27.4-27.5-55.72-54.08-83.36-81.35-11.2-11.05-21.54-22.43-33.14-33.15-4.94-4.55-6.44-10.979-15.07-12.051-2.61,5.8-30.93,32.431-37.16,37.161-2.67,2.03-3.68,5.69-6.026,8.04-7.565,7.56-15.877,15.29-24.105,22.09q-4.519,5.535-9.039,11.05a167.465,167.465,0,0,0-29.127,29.13c-1.434,1.82-4.191,2.52-6.026,4.02-7.9,6.43-15.894,15.9-22.1,24.1-7.592,10.04-31.118,24.03-35.153,35.16h1c5.119,3.55,17.831,2,26.114,2H1127.31C1156.22,1169.88,1188.53,1172.01,1215.69,1168.88Zm-339.473,33.14c-1.347,1.92-1.289.88-2.009,4.02,17.114,13.21,30.98,31.9,46.2,47.21,21.057,21.17,43.179,41.12,63.275,63.28,3.775,4.16,9.171,6.97,13.057,11.04,7.229,7.58,13.7,15.72,21.089,23.1l10.05,8.04c4.65,6.13,10.34,14.31,18.07,17.07,8.24-10.62,20.67-18.58,30.14-28.12,32.02-32.27,63.27-65.28,95.41-97.42q16.065-16.08,32.14-32.14c4.74-4.73,11.67-6.97,13.06-15.07h-2.01c-4.97-3.07-19.04-1.01-26.12-1.01H876.217Z" transform="translate(-374 -73.969)" fill="url(#half_grad)" stroke-width="2" stroke="green"/>
</svg>
